<?xml version="1.0" encoding="UTF-8" standalone="no"?>
<svg width="16px" height="16px" viewBox="0 0 16 16" version="1.1" xmlns="http://www.w3.org/2000/svg" xmlns:xlink="http://www.w3.org/1999/xlink">
    <!-- Generator: Sketch 3.8.3 (29802) - http://www.bohemiancoding.com/sketch -->
    <title>Page 1</title>
    <desc>Created with Sketch.</desc>
    <defs></defs>
    <g id="Page-1" stroke="none" stroke-width="1" fill="none" fill-rule="evenodd">
        <g id="Artboard-1-Copy-5" transform="translate(-1247.000000, -15.000000)" fill="#C4C9CB">
            <path d="M1263,29 C1263,30.105 1262.104,31 1261,31 L1254,31 C1252.896,31 1252,30.105 1252,29 L1252,26 L1249,26 C1247.896,26 1247,25.105 1247,24 L1247,17 C1247,15.895 1247.896,15 1249,15 L1256,15 C1257.104,15 1258,15.895 1258,17 L1258,20 L1261,20 C1262.104,20 1263,20.895 1263,22 L1263,29 Z M1260.5,22 L1258,22 L1254.5,22 C1254.224,22 1254,22.224 1254,22.5 L1254,26 L1254,28.5 C1254,28.776 1254.224,29 1254.5,29 L1260.5,29 C1260.776,29 1261,28.776 1261,28.5 L1261,22.5 C1261,22.224 1260.776,22 1260.5,22 L1260.5,22 Z M1256,20 L1256,17.5 C1256,17.224 1255.776,17 1255.5,17 L1249.5,17 C1249.224,17 1249,17.224 1249,17.5 L1249,23.5 C1249,23.776 1249.224,24 1249.5,24 L1252,24 L1252,22 C1252,20.895 1252.896,20 1254,20 L1256,20 Z" id="Page-1"></path>
        </g>
    </g>
</svg>